<?xml version="1.0" encoding="UTF-8"?>
<svg id="Layer_1" xmlns="http://www.w3.org/2000/svg" version="1.1" viewBox="0 0 120 60">
  <!-- Generator: Adobe Illustrator 29.7.1, SVG Export Plug-In . SVG Version: 2.1.1 Build 8)  -->
  <defs>
    <style>
      .st0 {
        fill: #faae40;
      }

      .st1 {
        fill: #404041;
      }

      .st2 {
        fill: #f38020;
      }
    </style>
  </defs>
  <path class="st1" d="M19.5,46.69h4.24v2.13h-6.68v-8.77h2.44v6.65ZM26.26,44.45v-.03c0-2.52,2.03-4.57,4.74-4.57s4.71,2.02,4.71,4.54v.03c0,2.52-2.03,4.57-4.74,4.57s-4.71-2.02-4.71-4.54M33.23,44.45v-.03c0-1.27-.91-2.36-2.25-2.36s-2.22,1.08-2.22,2.35v.03c0,1.27.91,2.36,2.24,2.36s2.24-1.08,2.24-2.35M38.7,44.97v-4.93h2.47v4.88c0,1.27.64,1.86,1.6,1.86s1.6-.58,1.6-1.8v-4.94h2.47v4.86c0,2.83-1.6,4.07-4.11,4.07s-4.05-1.25-4.05-4M50.56,40.04h3.38c3.13,0,4.96,1.8,4.96,4.33v.03c0,2.53-1.85,4.4-5.01,4.4h-3.33v-8.77h0ZM53.98,46.65c1.46,0,2.42-.8,2.42-2.22v-.03c0-1.41-.97-2.22-2.42-2.22h-.99v4.46h.99ZM62.45,40.04h7.02v2.13h-4.6v1.5h4.16v2.02h-4.16v3.13h-2.42v-8.77ZM75.27,46.69h4.25v2.13h-6.68v-8.77h2.42v6.65ZM85.88,39.99h2.35l3.74,8.84h-2.6l-.64-1.56h-3.38l-.63,1.56h-2.55l3.72-8.84h-.01ZM88.02,45.37l-.97-2.49-.99,2.49h1.96ZM95.1,40.05h4.14c1.35,0,2.27.34,2.86.95.52.5.78,1.17.78,2.05v.03c0,1.35-.72,2.24-1.8,2.7l2.1,3.07h-2.82l-1.77-2.66h-1.07v2.66h-2.43v-8.8ZM99.13,44.26c.83,0,1.3-.41,1.3-1.03v-.03c0-.69-.5-1.03-1.31-1.03h-1.6v2.1h1.61ZM108.8,46.75h4.71v2.06h-7.12v-8.77h7.05v2.06h-4.65v1.33h4.21v1.92h-4.21v1.39ZM11.74,45.48c-.34.77-1.06,1.31-2,1.31-1.33,0-2.24-1.1-2.24-2.36v-.03c0-1.27.89-2.35,2.22-2.35,1,0,1.77.6,2.08,1.46h2.56c-.41-2.1-2.25-3.64-4.63-3.64-2.71,0-4.74,2.05-4.74,4.57v.03c0,2.52,2.01,4.54,4.71,4.54,2.32,0,4.13-1.5,4.6-3.5l-2.57-.02h0Z"/>
  <g>
    <path class="st2" d="M98.07,35.5l.27-.95h.01c.33-1.14.2-2.17-.34-2.94-.5-.7-1.35-1.1-2.36-1.16l-19.25-.25c-.12,0-.23-.06-.3-.16s-.08-.22-.05-.34c.07-.19.25-.33.45-.34l19.43-.25c2.3-.1,4.8-1.97,5.68-4.25l1.1-2.89c.03-.08.04-.16.04-.24,0-.04,0-.09,0-.13-1.25-5.66-6.3-9.89-12.34-9.89-5.42,0-10.24,3.45-11.98,8.59-1.09-.81-2.49-1.25-3.99-1.1-2.68.28-4.81,2.4-5.08,5.08-.06.67-.02,1.34.14,1.99-4.38.12-7.86,3.71-7.85,8.09,0,.39.03.78.08,1.17.03.19.19.33.38.33h35.54s.03-.01.05-.02c.18-.02.35-.14.4-.33Z"/>
    <path class="st0" d="M104.47,22.16h0s-.53.02-.53.02c-.02,0-.04.02-.06.02-.1.03-.18.09-.22.2l-.75,2.61c-.33,1.13-.2,2.16.34,2.92.5.7,1.34,1.1,2.36,1.16l4.1.25c.12,0,.24.06.3.16.06.1.08.23.05.34-.07.19-.25.33-.45.34l-4.27.25c-2.32.1-4.8,1.97-5.68,4.25l-.31.8c-.06.16.05.31.22.31h14.67c.17,0,.33-.1.38-.28.26-.93.39-1.88.39-2.85-.02-5.8-4.72-10.5-10.53-10.51Z"/>
  </g>
</svg>