<?xml version="1.0" encoding="UTF-8"?>
<svg id="logos" xmlns="http://www.w3.org/2000/svg" version="1.1" viewBox="0 0 1048.82 425.2">
  <!-- Generator: Adobe Illustrator 29.7.1, SVG Export Plug-In . SVG Version: 2.1.1 Build 8)  -->
  <defs>
    <style>
      .st0 {
        fill: none;
      }

      .st1 {
        fill: #00bcff;
      }

      .st2 {
        fill: #0a0080;
      }
    </style>
  </defs>
  <g>
    <path class="st0" d="M307.71,154.48c-1.43-.67-14.13-6.35-26.83-6.36-.34,0-.68.01-1.02.02-20.41.47-29.27,9.33-38.66,18.72l-11.99,12.91-.07.1c-.56.71-.72,1.21-.48,1.52,1.46,1.86,5.35,3.12,9.69,3.12,1.73,0,3.47-.2,5.16-.58,3.87-.86,8.98-4.93,13.93-8.86l.27-.22c5.31-4.22,10.8-8.58,16.31-10.33,2.43-.78,4.76-1.17,6.93-1.17,2.33,0,4.14.45,5.45.85,2.92.87,6.25,2.8,11.12,6.47,8.53,6.4,40.01,33.77,53.63,45.66,5.83-2.6,29.11-12.67,60.32-19.61-2.94-16.07-12.59-30.81-27.15-43.05-13.94,6.41-27.2,9.58-40.05,9.58-12.35-.01-24.65-2.96-36.56-8.77Z"/>
    <path class="st0" d="M251.27,254.23c-.47,0-.89.29-1.36.72l2.59,1.16c-.02-.52-.07-1.88-1.23-1.88Z"/>
    <path class="st0" d="M199.12,217.08c2.61-2.59,6.14-4.06,9.81-4.06,4.19,0,8.17,1.94,10.81,5.22,2.75-1.95,5.84-2.94,9.19-2.94,1.92,0,3.9.35,5.9,1.04,3.6,1.23,6.37,3.59,8.04,6.83,1.59-.61,3.28-.91,5.04-.91,2.24,0,4.55.52,6.87,1.52,8.05,3.45,8.63,11.29,8.34,15.43.19,0,.4,0,.59,0,9.07,0,16.43,7.38,16.43,16.45,0,2.4-.54,4.8-1.57,6.98,2.27,1.2,6.67,3.2,10.79,3.2.48,0,.98-.03,1.46-.09,4-.5,5.33-1.83,5.73-2.38.26-.38.4-.63.41-.74l-11.01-12.15c-.68-.64-2.28-2.38-1.22-3.55.32-.34.72-.52,1.17-.52.91,0,1.8.74,2.51,1.34,5.39,4.49,11.9,11.14,12.6,11.87l.16.16c.42.49,1.28.84,2.55,1.07.53.1,1.12.15,1.75.15,1.17,0,4.11-.19,6.31-2,.4-.34.81-.74,1.2-1.16l.46-.58c2.37-3.02-.19-6.06-.29-6.19l-12.91-14.51s-.49-.45-.89-1c-1-1.33-.72-2.13-.32-2.57.3-.32.69-.48,1.12-.48.87,0,1.78.66,2.64,1.37,3.51,2.92,8.3,7.64,12.94,12.21l2.54,2.5c.42.29,2.33,1.53,5.05,1.53,2.07,0,4.18-.69,6.27-2.07,2.93-1.92,4.34-4.39,4.2-7.34-.24-2.73-2.45-4.79-2.45-4.79l-17.7-17.8c-1.16-.98-2.14-2.48-1.26-3.56.28-.35.69-.55,1.16-.55.87,0,1.73.66,2.62,1.4,5.58,4.67,20.73,18.57,20.89,18.7.14.09,2.17,1.48,5.13,1.48,1.97,0,3.91-.61,5.8-1.81,2.18-1.39,3.43-3.39,3.54-5.65.2-4.04-2.62-6.48-2.65-6.5-.43-.38-44.65-39.07-54.65-46.58-5.61-4.21-8.75-5.31-11.99-5.72-.35-.05-.73-.07-1.14-.07-1.36,0-3.04.24-4.42.61-4.92,1.34-11.34,5.9-15.86,9.49-5.67,4.51-11.02,8.78-16.13,9.92-1.58.36-3.32.54-5.15.54-4.82,0-10.02-1.33-12.92-3.28-1.55-1.04-2.66-2.27-3.2-3.55-1.37-3.18.71-5.76,1.67-6.73l12.17-13.17c.79-.79,1.58-1.58,2.37-2.35-2.95.56-5.76,1.34-8.3,2.05-4.3,1.2-8.75,2.45-13.21,2.45-2,0-4-.22-5.87-.34-6.72-.43-27.97-5.97-45.48-13.13l-.05.02c-15.4,12.25-25.79,27.18-29.2,43.52,2.48.73,6.43,1.86,8.17,2.25,36.41,8.27,50.01,16.91,53.44,19.53Z"/>
    <path class="st1" d="M218.13,159.76c3.64,0,7.37-1.04,11.7-2.24,4.85-1.35,10.3-2.87,16.61-3.03,6.49-5.33,16.15-11.42,33.29-11.82.38-.01.77-.01,1.15-.01,14.59.01,28.61,6.62,29.2,6.9,11.18,5.45,22.69,8.22,34.21,8.23,11.26,0,22.93-2.67,35.17-7.97-25.33-19-62.99-31.07-105.09-31.07h.01c-40.75,0-77.37,11.29-102.64,29.25,16.77,6.33,37.77,11.48,41.95,11.61.24.01,2.94.15,4.44.15Z"/>
    <path class="st1" d="M355,220.64c1.44,2.38,2.12,5.16,1.91,7.91-.33,4.04-2.47,7.52-6.02,9.79-2.77,1.77-5.69,2.66-8.65,2.66-1.02,0-2.04-.11-3.05-.32.09,3.21-.9,8.12-6.63,11.87-2.97,1.95-6.08,2.93-9.24,2.93-1.01,0-2.02-.1-3.01-.3-.01.04-.01.08-.01.11-.3,2.58-2.38,5.61-5.31,7.72-2.98,2.16-5.92,3.21-8.99,3.21-1.68-.01-3.14-.32-4.46-.7-.17.33-.36.65-.58.95-1.2,1.71-3.81,3.91-9.43,4.62-.7.08-1.38.13-2.11.13-5.66-.01-11.26-2.68-13.91-4.16-3.1,3.19-7.35,4.99-11.78,4.99-6.68,0-12.67-4.07-15.19-10.2-1.36.5-2.79.76-4.25.76-1.79,0-3.63-.39-5.47-1.13-5.26-2.13-7.6-5.44-8.65-8.09-1.04.26-2.11.39-3.17.39-1.65,0-3.32-.33-4.97-.96-5.65-2.2-9.35-6.49-10.51-12.15-.84.16-1.7.24-2.56.24-7.68,0-13.93-6.26-13.93-13.95,0-1.84.37-3.66,1.07-5.35-2.08-1.63-14.37-10.22-51.56-18.48-1.25-.29-7.31-1.73-7.92-1.88-.19,1.93-.33,3.88-.33,5.84,0,48.78,61.82,88.33,138.08,88.33v.03c76.25,0,138.07-39.55,138.07-88.33,0-1.48-.06-2.95-.17-4.41-25.79,5.81-47.69,13.8-57.27,17.93Z"/>
    <path class="st2" d="M274.35,113.21c-79.31,0-143.6,42.18-143.6,93.92,0,1.34-.02,5.03-.02,5.5,0,54.9,56.19,99.35,143.6,99.35s143.61-44.45,143.61-99.34v-5.51c0-51.74-64.29-93.92-143.59-93.92ZM411.47,196.72c-31.21,6.94-54.49,17.01-60.32,19.61-13.62-11.89-45.1-39.26-53.63-45.66-4.87-3.67-8.2-5.6-11.12-6.47-1.31-.4-3.12-.85-5.45-.85-2.17,0-4.5.39-6.93,1.17-5.51,1.75-11,6.11-16.31,10.33l-.27.22c-4.95,3.93-10.06,8-13.93,8.86-1.69.38-3.43.58-5.16.58-4.34,0-8.23-1.26-9.69-3.12-.24-.31-.08-.81.48-1.52l.07-.1,11.99-12.91c9.39-9.39,18.25-18.25,38.66-18.72.34-.01.68-.02,1.02-.02,12.7.01,25.4,5.69,26.83,6.36,11.91,5.81,24.21,8.76,36.56,8.77,12.85,0,26.11-3.17,40.05-9.58,14.56,12.24,24.21,26.98,27.15,43.05ZM274.38,118.74h-.01c42.1,0,79.76,12.08,105.09,31.08-12.24,5.3-23.91,7.97-35.17,7.97-11.52-.01-23.03-2.78-34.21-8.23-.59-.28-14.61-6.89-29.2-6.9-.38,0-.77,0-1.15.01-17.14.4-26.8,6.49-33.29,11.82-6.31.16-11.76,1.68-16.61,3.03-4.33,1.2-8.06,2.24-11.7,2.24-1.5,0-4.2-.14-4.44-.15-4.18-.13-25.18-5.28-41.95-11.61,25.27-17.96,61.89-29.26,102.64-29.26ZM166.71,151.78l.05-.02c17.51,7.16,38.76,12.7,45.48,13.13,1.87.12,3.87.34,5.87.34,4.46,0,8.91-1.25,13.21-2.45,2.54-.71,5.35-1.49,8.3-2.05-.79.77-1.58,1.56-2.37,2.35l-12.17,13.17c-.96.97-3.04,3.55-1.67,6.73.54,1.28,1.65,2.51,3.2,3.55,2.9,1.95,8.1,3.28,12.92,3.28,1.83,0,3.57-.18,5.15-.54,5.11-1.14,10.46-5.41,16.13-9.92,4.52-3.59,10.94-8.15,15.86-9.49,1.38-.37,3.06-.61,4.42-.61.41,0,.79.02,1.14.07,3.24.41,6.38,1.51,11.99,5.72,10,7.51,54.22,46.2,54.65,46.58.03.02,2.85,2.46,2.65,6.5-.11,2.26-1.36,4.26-3.54,5.65-1.89,1.2-3.83,1.81-5.8,1.81-2.96,0-4.99-1.39-5.13-1.48-.16-.13-15.31-14.03-20.89-18.7-.89-.74-1.75-1.4-2.62-1.4-.47,0-.88.2-1.16.55-.88,1.08.1,2.58,1.26,3.56l17.7,17.8s2.21,2.06,2.45,4.79c.14,2.95-1.27,5.42-4.2,7.34-2.09,1.38-4.2,2.07-6.27,2.07-2.72,0-4.63-1.24-5.05-1.53l-2.54-2.5c-4.64-4.57-9.43-9.29-12.94-12.21-.86-.71-1.77-1.37-2.64-1.37-.43,0-.82.16-1.12.48-.4.44-.68,1.24.32,2.57.4.55.89,1,.89,1l12.91,14.51c.1.13,2.66,3.17.29,6.19l-.46.58c-.39.42-.8.82-1.2,1.16-2.2,1.81-5.14,2-6.31,2-.63,0-1.22-.05-1.75-.15-1.27-.23-2.13-.58-2.55-1.07l-.16-.16c-.7-.73-7.21-7.38-12.6-11.87-.71-.6-1.6-1.34-2.51-1.34-.45,0-.85.18-1.17.52-1.06,1.17.54,2.91,1.22,3.55l11.01,12.15c-.01.11-.15.36-.41.74-.4.55-1.73,1.88-5.73,2.38-.48.06-.98.09-1.46.09-4.12,0-8.52-2-10.79-3.2,1.03-2.18,1.57-4.58,1.57-6.98,0-9.07-7.36-16.44-16.43-16.45-.19,0-.4,0-.59,0,.29-4.14-.29-11.98-8.34-15.43-2.32-1-4.63-1.52-6.87-1.52-1.76,0-3.45.3-5.04.91-1.67-3.24-4.44-5.6-8.04-6.83-2-.69-3.98-1.04-5.9-1.04-3.35,0-6.44.99-9.19,2.94-2.64-3.28-6.62-5.22-10.81-5.22-3.67,0-7.2,1.47-9.81,4.06-3.43-2.62-17.03-11.26-53.44-19.53-1.74-.39-5.69-1.52-8.17-2.25,3.41-16.34,13.8-31.27,29.2-43.52ZM234.28,246.53h.02s-.39-.34-.39-.34h-.4c-.32,0-.66.13-1.11.45-1.86,1.31-3.63,1.94-5.44,1.94-1,0-2.02-.2-3.04-.59-8.44-3.29-7.78-11.25-7.36-13.65.06-.49-.06-.86-.37-1.12l-.6-.49-.56.53c-1.65,1.59-3.8,2.45-6.06,2.45-4.83,0-8.77-3.93-8.76-8.77,0-4.83,3.94-8.76,8.78-8.75,4.37,0,8.09,3.28,8.64,7.65l.3,2.35,1.29-1.99c.14-.23,3.69-5.59,10.2-5.58,1.24,0,2.52.2,3.81.6,5.19,1.58,6.07,6.29,6.2,8.25.09,1.14.91,1.2,1.06,1.2.45,0,.78-.28,1.01-.53.98-1.02,3.11-2.72,6.45-2.72,1.53,0,3.15.37,4.83,1.09,8.25,3.54,4.51,14.02,4.47,14.13-.71,1.74-.74,2.5-.07,2.95l.32.15h.24c.37,0,.83-.16,1.6-.42,1.12-.39,2.81-.97,4.4-.97,6.21.07,11.26,5.13,11.26,11.26s-5.06,11.24-11.27,11.24-11.01-4.73-11.23-10.74l-2.59-1.16c-1.34,1.24-3.04,2.49-5.52,2.49-1.13,0-2.35-.26-3.64-.79-6.41-2.6-6.5-7-6.24-8.77.07-.47.09-.96-.23-1.35ZM274.37,295.45v-.03c-76.26,0-138.08-39.55-138.08-88.33,0-1.96.14-3.91.33-5.84.61.15,6.67,1.59,7.92,1.88,37.19,8.26,49.48,16.85,51.56,18.48-.7,1.69-1.07,3.51-1.07,5.35,0,7.69,6.25,13.95,13.93,13.95.86,0,1.72-.08,2.56-.24,1.16,5.66,4.86,9.95,10.51,12.15,1.65.63,3.32.96,4.97.96,1.06,0,2.13-.13,3.17-.39,1.05,2.65,3.39,5.96,8.65,8.09,1.84.74,3.68,1.13,5.47,1.13,1.46,0,2.89-.26,4.25-.76,2.52,6.13,8.51,10.2,15.19,10.2,4.43,0,8.68-1.8,11.78-4.99,2.65,1.48,8.25,4.15,13.91,4.16.73,0,1.41-.05,2.11-.13,5.62-.71,8.23-2.91,9.43-4.62.22-.3.41-.62.58-.95,1.32.38,2.78.69,4.46.7,3.07,0,6.01-1.05,8.99-3.21,2.93-2.11,5.01-5.14,5.31-7.72,0-.03,0-.07.01-.11.99.2,2,.3,3.01.3,3.16,0,6.27-.98,9.24-2.93,5.73-3.75,6.72-8.66,6.63-11.87,1.01.21,2.03.32,3.05.32,2.96,0,5.88-.89,8.65-2.66,3.55-2.27,5.69-5.75,6.02-9.79.21-2.75-.47-5.53-1.91-7.91,9.58-4.13,31.48-12.12,57.27-17.93.11,1.46.17,2.93.17,4.41,0,48.78-61.82,88.33-138.07,88.33Z"/>
  </g>
  <g>
    <path class="st2" d="M910.26,142.12c-5.21-6.54-13.13-9.8-23.75-9.8s-18.53,3.27-23.74,9.8c-5.22,6.53-7.83,14.25-7.83,23.16s2.61,16.81,7.83,23.26c5.21,6.43,13.13,9.65,23.74,9.65s18.54-3.22,23.75-9.65c5.22-6.45,7.82-14.19,7.82-23.26s-2.6-16.63-7.82-23.16ZM897.34,179.6c-2.53,3.35-6.15,5.04-10.89,5.04s-8.36-1.69-10.91-5.04c-2.55-3.35-3.82-8.13-3.82-14.32s1.27-10.95,3.82-14.29,6.19-5.01,10.91-5.01,8.35,1.67,10.89,5.01c2.53,3.34,3.8,8.11,3.8,14.29s-1.27,10.97-3.8,14.32h0Z"/>
    <path class="st2" d="M776.98,136.65c-5.29-2.68-11.34-4.03-18.15-4.03-10.47,0-17.86,2.73-22.17,8.18-2.71,3.49-4.22,7.95-4.58,13.37h15.65c.38-2.4,1.15-4.29,2.31-5.69,1.61-1.89,4.36-2.84,8.23-2.84,3.46,0,6.08.48,7.88,1.45,1.78.96,2.68,2.72,2.68,5.26,0,2.09-1.16,3.61-3.49,4.61-1.3.57-3.46,1.04-6.48,1.42l-5.55.68c-6.3.8-11.08,2.13-14.32,3.99-5.92,3.41-8.88,8.93-8.88,16.55,0,5.87,1.83,10.41,5.52,13.61,3.67,3.21,8.34,4.55,13.98,4.81,35.37,1.59,34.98-18.64,35.3-22.84v-23.27c0-7.47-2.65-12.55-7.93-15.25h0ZM768.76,171.97c-.11,5.42-1.66,9.15-4.64,11.2-2.99,2.05-6.24,3.07-9.78,3.07-2.24,0-4.14-.63-5.7-1.85-1.56-1.23-2.34-3.24-2.34-6.01,0-3.1,1.28-5.39,3.83-6.88,1.51-.87,3.99-1.61,7.45-2.2l3.69-.69c1.84-.35,3.28-.73,4.34-1.13,1.07-.38,2.1-.9,3.13-1.55v6.03h.02Z"/>
    <path class="st2" d="M696.32,146.48c4.05,0,7.01,1.25,8.94,3.75,1.31,1.84,2.13,3.93,2.45,6.24h17.45c-.95-8.81-4.03-14.95-9.24-18.43-5.22-3.47-11.9-5.21-20.07-5.21-9.61,0-17.15,2.95-22.61,8.84-5.46,5.9-8.2,14.15-8.2,24.75,0,9.38,2.47,17.04,7.42,22.93,4.95,5.89,12.66,8.84,23.14,8.84s18.42-3.53,23.76-10.61c3.35-4.38,5.23-9.03,5.62-13.94h-17.39c-.36,3.25-1.37,5.9-3.06,7.94-1.67,2.03-4.5,3.06-8.5,3.06-5.63,0-9.47-2.57-11.5-7.72-1.12-2.75-1.69-6.38-1.69-10.91s.57-8.54,1.69-11.43c2.12-5.39,6.05-8.1,11.79-8.1h0Z"/>
    <path class="st2" d="M660.36,132.83c-35.85,0-33.72,31.73-33.72,31.73v32.24h16.27v-30.23c0-4.96.63-8.62,1.86-11.01,2.23-4.23,6.6-6.35,13.1-6.35.49,0,1.13.03,1.92.07.79.04,1.69.11,2.73.23v-16.55c-.72-.05-1.19-.07-1.39-.1-.21-.02-.46-.03-.77-.03h0Z"/>
    <path class="st2" d="M613.6,144.85c-2.81-4.16-6.38-7.21-10.68-9.15-4.31-1.92-9.15-2.88-14.52-2.88-9.06,0-16.42,2.85-22.1,8.56-5.67,5.72-8.52,13.92-8.52,24.63,0,11.43,3.15,19.67,9.44,24.74,6.28,5.06,13.54,7.61,21.76,7.61,9.96,0,17.71-3.01,23.24-9.02,2.99-3.16,4.86-6.29,5.65-9.38h-17.26c-.68.98-1.41,1.81-2.22,2.46-2.3,1.89-5.42,2.47-9.09,2.47-3.47,0-6.2-.52-8.66-2.07-4.06-2.5-6.35-6.72-6.59-12.91h45.01c.06-5.34-.11-9.43-.54-12.27-.74-4.84-2.4-9.1-4.92-12.77v-.02ZM574.45,159.23c.58-4.02,2.03-7.2,4.3-9.56,2.29-2.35,5.5-3.53,9.65-3.53,3.81,0,7.01,1.11,9.59,3.34,2.57,2.22,4,5.48,4.3,9.75h-27.84Z"/>
    <path class="st2" d="M525.46,132.61c-7.55,0-14.08,3.31-18.47,8.61-4.17-5.3-10.59-8.61-18.48-8.61-15.89,0-26.13,11.67-26.13,27.12v37.06h14.87v-37.41c0-6.83,4.62-11.55,11.27-11.55,9.8,0,10.81,8.13,10.81,11.55v37.41h14.87v-37.41c0-6.83,4.73-11.55,11.26-11.55,9.8,0,10.93,8.13,10.93,11.55v37.41h14.85v-37.06c0-15.93-9.56-27.12-25.79-27.12h.01Z"/>
    <path class="st2" d="M833.71,124.7l-.02,17.43c-1.81-2.92-4.17-5.2-7.08-6.83-2.9-1.64-6.23-2.47-9.98-2.47-8.13,0-14.6,3.03-19.46,9.06-4.86,6.05-7.29,14.77-7.29,25.31,0,9.15,2.47,16.65,7.4,22.49,4.93,5.83,14.6,8.39,23.19,8.39,29.95,0,29.6-25.68,29.6-25.68v-59.11s-16.37-1.75-16.37,11.41h.01ZM830.58,179.74c-2.37,3.4-5.86,5.1-10.43,5.1s-7.98-1.72-10.23-5.13c-2.25-3.43-3.37-8.41-3.37-14.11,0-5.3,1.1-9.72,3.31-13.29,2.21-3.57,5.67-5.36,10.4-5.36,3.1,0,5.82.98,8.17,2.94,3.81,3.25,5.73,9.09,5.73,16.64,0,5.4-1.2,9.81-3.58,13.21h0Z"/>
  </g>
  <path class="st2" d="M496.75,221.66c-13.4-.63-20.16,2.56-24.57,5.93-6.09,4.65-9.8,11.53-9.8,22.52v56.51h7.88c2.11,0,4.22-.73,5.77-2.16,1.74-1.6,2.61-3.56,2.61-5.86v-21.12c1.92,3.31,4.45,5.74,7.65,7.32,3.03,1.41,6.53,2.12,10.51,2.12,7.49,0,13.64-2.98,18.41-8.97,4.78-6.15,7.17-14.15,7.17-24.06s-2.26-16.97-7.68-23.57c-4.38-5.34-11.04-8.35-17.94-8.66h0ZM502.3,268.04c-2.39,3.31-5.66,4.96-9.8,4.96-4.46,0-7.89-1.64-10.28-4.96-2.39-2.99-3.59-7.45-3.59-13.45,0-6.43,1.11-11.16,3.34-14.15,2.4-3.29,5.75-4.96,10.05-4.96s7.89,1.66,10.28,4.96c2.4,3.31,3.59,8.02,3.59,14.15,0,5.68-1.19,10.14-3.59,13.45Z"/>
  <path class="st2" d="M636.47,227.49c-5.53-4.19-11.18-6.38-20.89-6.12-9.86.27-17.03,3.03-21.49,9.07-4.46,6.05-6.68,13.95-6.68,23.68,0,8.33,1.68,15.04,5.04,20.17,3.37,5.1,7.4,8.6,12.1,10.47,4.68,1.89,9.42,2.28,14.2,1.19,4.77-1.11,8.57-3.84,11.39-8.24v3.99c-.32,5.03-1.53,8.8-3.63,11.32-2.13,2.5-4.47,4.04-7.06,4.59-2.56.54-5.16.24-7.73-.95-2.59-1.17-4.5-2.87-5.75-5.06h-17.14c4.44,13.34,12.41,19.23,26.77,20.27,23.16,1.67,30.54-17.94,30.52-28.52v-33.25c0-10.99-3.58-18.03-9.63-22.63l-.02.02ZM629.66,260.15c-.63,3.68-1.64,6.4-3.06,8.12-2.97,4.08-7.6,5.53-13.84,4.37-6.27-1.19-9.4-7.2-9.4-18.03,0-5.03.93-9.51,2.82-13.45,1.88-3.91,5.47-5.89,10.79-5.89,3.91,0,6.89,1.42,8.92,4.24,2.04,2.83,3.34,6.05,3.88,9.67.55,3.61.5,7.27-.12,10.96h.01Z"/>
  <path class="st2" d="M573.49,225.84c-5.29-2.67-11.34-4.03-18.15-4.03-10.47,0-17.85,2.73-22.15,8.19-2.7,3.48-4.22,7.94-4.58,13.36h15.65c.38-2.39,1.15-4.29,2.3-5.68,1.61-1.89,4.36-2.85,8.23-2.85,3.47,0,6.09.48,7.88,1.45,1.78.96,2.67,2.72,2.67,5.26,0,2.08-1.16,3.62-3.49,4.6-1.3.57-3.46,1.04-6.48,1.42l-5.54.67c-6.3.8-11.09,2.13-14.31,3.99-5.93,3.41-8.88,8.92-8.88,16.54,0,5.87,1.83,10.41,5.52,13.61,3.67,3.21,8.34,4.55,13.99,4.81,35.36,1.58,34.96-18.64,35.28-22.84v-23.27c0-7.46-2.63-12.54-7.92-15.24h-.02ZM565.27,261.15c-.1,5.43-1.66,9.15-4.63,11.2-2.98,2.05-6.24,3.07-9.78,3.07-2.24,0-4.13-.63-5.7-1.85-1.56-1.23-2.34-3.23-2.34-6,0-3.1,1.28-5.39,3.83-6.87,1.52-.87,3.99-1.61,7.45-2.2l3.7-.68c1.84-.35,3.29-.72,4.33-1.12,1.07-.39,2.11-.91,3.14-1.56v6.03-.02Z"/>
  <path class="st2" d="M707.61,230.97c-5.22-6.54-13.14-9.81-23.76-9.81s-18.52,3.26-23.73,9.81c-5.22,6.53-7.83,14.24-7.83,23.15s2.61,16.8,7.83,23.25c5.21,6.42,13.13,9.64,23.73,9.64s18.53-3.22,23.76-9.64c5.21-6.45,7.81-14.19,7.81-23.25s-2.6-16.62-7.81-23.15ZM694.68,268.43c-2.53,3.36-6.15,5.05-10.87,5.05s-8.36-1.69-10.91-5.05c-2.56-3.35-3.83-8.12-3.83-14.31s1.27-10.95,3.83-14.29c2.54-3.34,6.18-5.01,10.91-5.01s8.35,1.67,10.87,5.01c2.53,3.34,3.79,8.1,3.79,14.29s-1.26,10.96-3.79,14.31Z"/>
</svg>