<?xml version="1.0" encoding="UTF-8"?>
<svg id="Layer_1" xmlns="http://www.w3.org/2000/svg" version="1.1" viewBox="0 0 500 237">
  <!-- Generator: Adobe Illustrator 29.7.1, SVG Export Plug-In . SVG Version: 2.1.1 Build 8)  -->
  <defs>
    <style>
      .st0 {
        fill: #a7a7a7;
      }

      .st1 {
        fill: #a2a2a2;
      }

      .st2 {
        fill: #9a9a9a;
      }

      .st3 {
        fill: #b5b5b5;
      }

      .st4 {
        fill: #5f5f5f;
      }

      .st5 {
        fill: #3e3e3e;
      }

      .st6 {
        fill: #4e4e4e;
      }

      .st7 {
        fill: #464646;
      }

      .st8 {
        fill: #565656;
      }

      .st9 {
        fill: #959595;
      }

      .st10 {
        fill: #acacac;
      }

      .st11 {
        fill: #858585;
      }

      .st12 {
        fill: #8b8b8b;
      }

      .st13 {
        fill: #383838;
      }

      .st14 {
        fill: #818181;
      }

      .st15 {
        fill: #2d2d2d;
      }

      .st16 {
        fill: #6a6a6a;
      }

      .st17 {
        fill: #aeaeae;
      }

      .st18 {
        fill: #2e2e2e;
      }
    </style>
  </defs>
  <path class="st15" d="M219.64,148.64c-9.73,9.93-27.89,10.59-40.68,7.89-12.01-2.53-21.01-8.66-12.88-21.48,9.91,4.15,18.32,7.82,29.45,6.97,11.38-.87,18.07-10.9,6.15-16.21-12.97-5.78-38.6-5.09-40.69-24.32-2.81-25.83,23.18-33.31,44.05-29.06,12.5,2.55,21.79,8.18,12.47,21.46-8.24-4.51-17.44-7.95-27.02-6.91-6.59.72-14.3,5.74-9.92,12.92,4.78,7.82,32.39,6.4,41.83,19.17,6.3,8.53,4.52,22.12-2.77,29.56Z"/>
  <path class="st15" d="M256,98.5c-.02.46-2.57,1.74.48,1.49,11.41-10.15,34.15-8.62,41.22,5.8.88,1.79,3.29,8.19,3.29,9.71v40.5c-7.4-.25-16.87,2.37-18.02-7.48-1.44-12.3,6.38-45.06-17.01-39.05-3.63.93-9.97,6.21-9.97,10.02v36.5c-5.16-.46-11.62,1.59-15.64-2.36-.38-.37-2.36-2.95-2.36-3.14v-79.5c7.44-1.76,18,3.13,18,11.5,0,5.3.25,10.71,0,16Z"/>
  <path class="st15" d="M469,93h18c2.08,15.1-6.31,13.29-18,13v32.5c0,6.81,14.21,4.08,17.99,1.5,7.38,22.08-22.76,23.01-32.42,8.94-.71-1.04-3.56-6.77-3.56-7.44v-70.5c5.45.35,10.63-1.48,15.04,2.46.67.6,2.96,3.57,2.96,4.04v15.5Z"/>
  <path class="st17" d="M136,106c-1.71,1.63-3.04,1.96-4,1-12.06.16-24.4-.17-37-1-2.87-1.91-1.89-4.68,2.95-8.32-9.24-.96-10.04-14.64-1.33-12.11l-1.9-4.38c-11.47-.5-22.95-.57-34.46-.2l-1.26-2c-8.36,2.44-16.64,2.45-25,0-7.71,2.5-15.29,2.47-23,0,1.04-1.66,3.8-1,5.49-1.02,37.91-.4,75.87.13,113.78.26,12.74,2.91,16.62,14.83,8.71,25.27-.94,1.25-2.34,1.76-2.98,2.49Z"/>
  <path class="st15" d="M417,93c7.13-.29,14.58-.89,17.75,6.75,1.21,18.67-1.21,37.83,1.25,56.24-7.45,1.64-19-1.24-19-10.49v-52.5Z"/>
  <path class="st10" d="M59,79c5.31.03,34.96-.76,37.02.48,1.42.86,3.76,8.64,2.98,9.51l-5.99-2.99c.34,2.21-.52,5.37-.05,7.34.51,2.14,7.24-.16,7.04,5.22-.09,2.4-5.87,2.33-4.99,7.44l-5.5.93c-8.77-.63-11.94-.27-9.5,1.07-1.39.91-3.05.91-5,0-1.92,2.54-4.59,2.54-8,0-1.32,3.07-9.43,2.74-11,0,.12,2.15-.41,2.58-2,1l-18-2,1.91-1.88c6.98,1.13,13.17.22,18.58-2.75.82-7.21.93-14.49.35-21.86l2.16-1.51Z"/>
  <path class="st15" d="M333,156c-4.77,1.74-18-1.66-18-7.5v-55.5c5.86-2.19,18,3,18,9.5v53.5Z"/>
  <path class="st0" d="M59,79c-.91,5.26,1.63,21-.93,24.57-3.39,4.72-16.47,3.79-22.07,3.43-.66-.04-1.35.07-2,0l-2-.9v-25.63l2-1.46c8.32-.03,16.68-.05,25,0Z"/>
  <path class="st1" d="M34,79v28c-13.83-1.57-21.6-15.26-23-28,7.65-.02,15.35.03,23,0Z"/>
  <path class="st12" d="M67,108c4.68,1.3,6.77,2.04,6.31,7.76-.51,5.49-.61,10.91-.31,16.24.43.48.1.81-1,1,.24,2.8-.53,3.34-3,2,.15-.86-.54-.96-1.28-.82-3.02.55-5.13,1.35-8.72,1.82-1.75.43-3.11.15-4.08-.84.36-8.18.2-16.36-.45-24.54l1.53-2.62c3.31-.42,7.5.11,11,0Z"/>
  <path class="st5" d="M84,128l2.1,2c-.39,7.24-.26,14.44.41,21.6l-1.52,2.4c-6.13,1.62-9.14,1.11-15,0l.97-2.16c-1.79-6.08-1.02-13.37,1.03-18.84.35-.23.61-.78,1-1-.86-3.39,7.99-6.28,10-4,.33-.87.67-.87,1,0Z"/>
  <path class="st7" d="M96,123c1.34,1.21,1.15,2.57-.59,4.06l.47,19.08-1.88,2.86c-3.17,2.15-4.91,3.92-9,5-2.18-8.4-.4-17.45-1-26,2.19-4.16,7.45-6.27,12-5Z"/>
  <path class="st9" d="M56,108c1.8,8.03.73,16.35,1,24.55.06,1.93-1.02,4.01,2,3.45-5.44.72-6.07,1.33-12,0-1.49-3.55-1.76-7.77-.82-12.67-.84-4.38-.56-8.15.82-11.33,2.41-.9,3.06-2.07,7-3,.64-.15,1.44-.93,2-1Z"/>
  <path class="st18" d="M320.72,71.21c16.39-3.63,16.54,19.35,0,15.57-7.67-1.75-7.67-13.87,0-15.57Z"/>
  <path class="st15" d="M423.71,71.21c15.9-3.58,14.86,20.17-.77,15.34-7.63-2.36-7.1-13.57.77-15.34Z"/>
  <path class="st6" d="M103,120l2,1.12c.78,5.29.32,15.2-2,19.88-3.65,3.55-4.46,4.91-9,8l-.61-22.55,2.61-3.45c1.44-3.35,3.58-4.26,7-3Z"/>
  <path class="st13" d="M72,133c3.62-.31,1.14.85.91,2.45-.44,3.09-.97,8.03-1,11.05s3.17,7.16-1.91,7.5c-5.46-1.03-8.08-2.42-12.99-5.02-.39-1.46.4-1.66.97-2.5,1.23-1.79,9.14-9.86,11.02-11.48.82-.71,2.04-1.37,3-2Z"/>
  <path class="st2" d="M47,112c1.77,7.65,1.36,16.29,0,24-3.44-.77-4.21-1.51-7-3l-1.51-1.74c-.14-.72-.81-13.12-.64-13.79.38-1.45.77-1.68,2.15-2.47,2.54-1.09,4.07-1.91,7-3Z"/>
  <path class="st8" d="M112,116l1.81,1.18c.29,1.77-.82,12.09-1.81,13.82-2.94,3.04-5.38,6.47-9,10v-21c1.49-3.76,5.21-5.45,9-4Z"/>
  <path class="st4" d="M122,112c2.75.87,3.08,3.53,1,8-3.57,3.89-7.38,7.26-11,11l-1.06-9.57,1.06-5.43c.58-3.51,7.14-6.03,10-4Z"/>
  <path class="st1" d="M40,115c-.87,6.16,2.42,12.09,0,18-3.77-2.01-5-2.71-8-6-1.88-3.39-1.63-7.96,2-10,2.17-.94,4.49-1.35,6-2Z"/>
  <path class="st16" d="M136,106c-4.18,4.8-8.7,9.32-13,14-2.15-2.48.11-5.61-1-8l-.26-1.36c-5.85,1.49-8.77.61-8.74-2.64l1.05-1.04c6.03-.05,12.01-.04,17.95.04,1.33-.33,2.66-.71,4-1Z"/>
  <path class="st10" d="M34,117l-2,10c-1.84-2.02-3.56-4.15-4.97-6.51,1.78-2.27,4.68-2.5,6.97-3.49Z"/>
  <path class="st15" d="M366.61,92.11c-10.44,1.22-19.68,5-20.64,16.36-1.17,13.85-1.62,47.55.3,60.77,1.54,10.65,7.38,10.01,16.74,9.76v-23c54.75,16.88,64.39-71.02,3.61-63.89ZM363.14,140.86c-.89-1.38-.51-31.47.34-32.88.59-.97,3.48-1.97,4.71-2.29,31.55-8.24,27.74,51.17-5.05,35.17Z"/>
  <path class="st3" d="M95,106c10.49-.03,21.02-.13,31.51-.02,1.69.02,4.45-.64,5.49,1.02-6.36,1.58-12.33.92-19,1-1.32.85-2.75,1.72-4.35,1.83-4.97.34-23.45.83-26.47-.52-.77-.34-1.48-.81-2.17-1.31l-6.99-1.99c7.32-.03,14.68,0,21.99-.01Z"/>
  <path class="st14" d="M80,108c10.71-.1,22.39-.55,33,0,.13,0,1.14.95,2.42,1.04,3.49.25,7.08-.26,10.57-.03-.13.89-3.32,2.68-3.99,2.99-2.97,1.35-6.71,2.59-10,4-3.01,1.29-6.03,2.74-9,4-2.36,1-4.65,1.97-7,3-3.96,1.73-8.01,3.22-12,5-.28.12-.72-.13-1,0-3.82,1.2-4.07-2.37-4.21-5.65,1.79-7.54.52-11.51-3.81-11.91l.02-2.44c1.67-.03,3.33.01,5,0Z"/>
  <path class="st11" d="M75,108c1.14,1.38,3.3.9,4.59,1.92,4.01,3.14-1.57,14.97,3.41,18.08-2.93,1.33-7.44,2.56-10,4-4.78-4.01-.32-15.05-2.16-20.34-.56-1.61-3.23-1.88-3.84-3.66,2.66-.09,5.34.04,8,0Z"/>
</svg>